<?xml version="1.0" encoding="UTF-8"?>
<svg enable-background="new 0 0 400 400" version="1.1" viewBox="0 0 400 400" xml:space="preserve" xmlns="http://www.w3.org/2000/svg" xmlns:cc="http://creativecommons.org/ns#" xmlns:dc="http://purl.org/dc/elements/1.1/" xmlns:rdf="http://www.w3.org/1999/02/22-rdf-syntax-ns#"><metadata><rdf:RDF><cc:Work rdf:about=""><dc:format>image/svg+xml</dc:format><dc:type rdf:resource="http://purl.org/dc/dcmitype/StillImage"/></cc:Work></rdf:RDF></metadata>
<g fill="#9c5221">
	<path d="m245.31 26.641c77.276 19.735 134.42 89.813 134.42 173.24 0 1.904-0.04 3.799-0.102 5.688l-120.26-17.105c-3.521-18.121-15.257-33.295-31.177-41.512zm-97.301 145.98c8.216-15.92 23.391-27.655 41.511-31.176l17.107-120.26c-1.89-0.059-3.783-0.099-5.688-0.099-83.425 0-153.5 57.14-173.24 134.42zm25.669 80.191c-15.919-8.217-27.655-23.393-31.175-41.512l-120.26-17.107c-0.059 1.89-0.099 3.785-0.099 5.689 0 83.424 57.14 153.5 134.42 173.24zm80.19-25.67c-8.218 15.92-23.392 27.654-41.513 31.176l-17.106 120.26c1.89 0.059 3.785 0.1 5.688 0.1 83.426 0 153.5-57.143 173.24-134.42z"/>
</g>
</svg>
